<svg xmlns="http://www.w3.org/2000/svg" viewBox="0 0 1440 320">
  <path fill="#FF8C42" fill-opacity="0.1" d="M0,160L48,176C96,192,192,224,288,213.3C384,203,480,149,576,138.7C672,128,768,160,864,186.7C960,213,1056,235,1152,218.7C1248,203,1344,149,1392,122.7L1440,96L1440,320L1392,320C1344,320,1248,320,1152,320C1056,320,960,320,864,320C768,320,672,320,576,320C480,320,384,320,288,320C192,320,96,320,48,320L0,320Z"></path>
  <path fill="#1E88E5" fill-opacity="0.1" d="M0,224L48,208C96,192,192,160,288,165.3C384,171,480,213,576,202.7C672,192,768,128,864,117.3C960,107,1056,149,1152,160C1248,171,1344,149,1392,138.7L1440,128L1440,0L1392,0C1344,0,1248,0,1152,0C1056,0,960,0,864,0C768,0,672,0,576,0C480,0,384,0,288,0C192,0,96,0,48,0L0,0Z"></path>
</svg>
